# WaveFront *.obj file (generated by Cinema 4D)

mtllib ./Model.mtl

v -540.087840 -355.583921 540.087840
v -540.087840 -335.949696 540.087840
v 540.087840 -355.583921 540.087840
v 540.087840 -335.949696 540.087840
v 540.087840 -355.583921 -540.087840
v 540.087840 -335.949696 -540.087840
v -540.087840 -355.583921 -540.087840
v -540.087840 -335.949696 -540.087840
# 8 vertices

vn 0.000000 0.000000 1.000000
vn 1.000000 0.000000 0.000000
vn 0.000000 0.000000 -1.000000
vn -1.000000 0.000000 0.000000
vn 0.000000 1.000000 0.000000
vn 0.000000 -1.000000 0.000000
# 6 normals

vt 0.000000 0.000000 0.000000
vt 0.000000 1.000000 0.000000
vt 1.000000 1.000000 0.000000
vt 1.000000 0.000000 0.000000
vt -0.000000 0.000000 0.000000
vt -0.000000 1.000000 0.000000
vt 0.000000 1.000000 0.000000
vt 1.000000 1.000000 0.000000
# 8 texture coordinates

o Cube.2
usemtl Mf_Stem
f 3/4/1 4/3/1 2/2/1 1/1/1
f 5/4/2 6/3/2 4/6/2 3/5/2
f 7/4/3 8/3/3 6/2/3 5/1/3
f 1/4/4 2/3/4 8/6/4 7/5/4
f 4/4/5 6/8/5 8/7/5 2/1/5
f 5/4/6 3/8/6 1/7/6 7/1/6

v -208.595138 -338.191074 -238.658839
v -208.595138 -264.591074 -238.658839
v -134.995138 -338.191074 -238.658839
v -134.995138 -264.591074 -238.658839
v -134.995138 -338.191074 -312.258839
v -134.995138 -264.591074 -312.258839
v -208.595138 -338.191074 -312.258839
v -208.595138 -264.591074 -312.258839
# 8 vertices

# 0 normal

vt 0.000000 1.000000 0.000000
vt 1.000000 1.000000 0.000000
# 2 texture coordinates

o Cube.1
usemtl Mf_Grass
f 11/4/1 12/10/1 10/9/1 9/1/1
f 13/4/2 14/10/2 12/9/2 11/1/2
f 15/4/3 16/10/3 14/9/3 13/1/3
f 9/4/4 10/10/4 16/9/4 15/1/4
f 12/4/5 14/10/5 16/9/5 10/1/5
f 13/4/6 11/10/6 9/9/6 15/1/6

v 119.309824 -336.448369 36.800000
v 119.309824 -262.848369 36.800000
v 192.909824 -336.448369 36.800000
v 192.909824 -262.848369 36.800000
v 192.909824 -336.448369 -36.800000
v 192.909824 -262.848369 -36.800000
v 119.309824 -336.448369 -36.800000
v 119.309824 -262.848369 -36.800000
# 8 vertices

# 0 normal

# 0 texture coordinate

o Cube
usemtl Mf_Petal
f 19/4/1 20/10/1 18/9/1 17/1/1
f 21/4/2 22/10/2 20/9/2 19/1/2
f 23/4/3 24/10/3 22/9/3 21/1/3
f 17/4/4 18/10/4 24/9/4 23/1/4
f 20/4/5 22/10/5 24/9/5 18/1/5
f 21/4/6 19/10/6 17/9/6 23/1/6

v -208.595138 -338.191074 36.800000
v -208.595138 -264.591074 36.800000
v -134.995138 -338.191074 36.800000
v -134.995138 -264.591074 36.800000
v -134.995138 -338.191074 -36.800000
v -134.995138 -264.591074 -36.800000
v -208.595138 -338.191074 -36.800000
v -208.595138 -264.591074 -36.800000
# 8 vertices

# 0 normal

# 0 texture coordinate

o Cube.3
usemtl Mf_Grass
f 27/4/1 28/10/1 26/9/1 25/1/1
f 29/4/2 30/10/2 28/9/2 27/1/2
f 31/4/3 32/10/3 30/9/3 29/1/3
f 25/4/4 26/10/4 32/9/4 31/1/4
f 28/4/5 30/10/5 32/9/5 26/1/5
f 29/4/6 27/10/6 25/9/6 31/1/6

v -208.595138 -338.191074 273.096991
v -208.595138 -264.591074 273.096991
v -134.995138 -338.191074 273.096991
v -134.995138 -264.591074 273.096991
v -134.995138 -338.191074 199.496991
v -134.995138 -264.591074 199.496991
v -208.595138 -338.191074 199.496991
v -208.595138 -264.591074 199.496991
# 8 vertices

# 0 normal

# 0 texture coordinate

o Cube.5
usemtl Mf_Grass
f 35/4/1 36/10/1 34/9/1 33/1/1
f 37/4/2 38/10/2 36/9/2 35/1/2
f 39/4/3 40/10/3 38/9/3 37/1/3
f 33/4/4 34/10/4 40/9/4 39/1/4
f 36/4/5 38/10/5 40/9/5 34/1/5
f 37/4/6 35/10/6 33/9/6 39/1/6

v 119.309824 -336.448369 -238.658839
v 119.309824 -262.848369 -238.658839
v 192.909824 -336.448369 -238.658839
v 192.909824 -262.848369 -238.658839
v 192.909824 -336.448369 -312.258839
v 192.909824 -262.848369 -312.258839
v 119.309824 -336.448369 -312.258839
v 119.309824 -262.848369 -312.258839
# 8 vertices

# 0 normal

# 0 texture coordinate

o Cube.6
usemtl Mf_Petal
f 43/4/1 44/10/1 42/9/1 41/1/1
f 45/4/2 46/10/2 44/9/2 43/1/2
f 47/4/3 48/10/3 46/9/3 45/1/3
f 41/4/4 42/10/4 48/9/4 47/1/4
f 44/4/5 46/10/5 48/9/5 42/1/5
f 45/4/6 43/10/6 41/9/6 47/1/6

v 119.309824 -336.448369 273.096991
v 119.309824 -262.848369 273.096991
v 192.909824 -336.448369 273.096991
v 192.909824 -262.848369 273.096991
v 192.909824 -336.448369 199.496991
v 192.909824 -262.848369 199.496991
v 119.309824 -336.448369 199.496991
v 119.309824 -262.848369 199.496991
# 8 vertices

# 0 normal

# 0 texture coordinate

o Cube.7
usemtl Mf_Petal
f 51/4/1 52/10/1 50/9/1 49/1/1
f 53/4/2 54/10/2 52/9/2 51/1/2
f 55/4/3 56/10/3 54/9/3 53/1/3
f 49/4/4 50/10/4 56/9/4 55/1/4
f 52/4/5 54/10/5 56/9/5 50/1/5
f 53/4/6 51/10/6 49/9/6 55/1/6

